<svg id="Capa_1" enable-background="new 0 0 512.003 512.003" height="512" viewBox="0 0 512.003 512.003" width="512" xmlns="http://www.w3.org/2000/svg"><g><path d="m151.001 497.003c0 8.28 6.72 15 15 15s15-6.72 15-15v-106h-30z"/><path d="m331.001 497.003c0 8.28 6.72 15 15 15s15-6.72 15-15v-106h-30z"/><path d="m436.001 181.003h-75v-166c0-8.284-6.716-15-15-15s-15 6.716-15 15v15h-14.974c-29.796-40.007-90.263-40-120.053 0h-14.974v-15c0-8.284-6.716-15-15-15s-15 6.716-15 15v166h-75c-8.284 0-15 6.716-15 15s6.716 15 15 15h15v286c0 8.284 6.716 15 15 15s15-6.716 15-15v-136h270v136c0 8.284 6.716 15 15 15s15-6.716 15-15v-286h15c8.284 0 15-6.716 15-15s-6.715-15-14.999-15zm-285 90h-30v-60h30zm120-149v149h-30v-149zm-90 0h30v149h-30zm150 149h-30v-149h30zm60 0h-30v-60h30z"/></g></svg>