<svg xmlns="http://www.w3.org/2000/svg" xmlns:xlink="http://www.w3.org/1999/xlink" version="1.1" x="0px" y="0px" viewBox="0 0 64 80" style="enable-background:new 0 0 64 64;" xml:space="preserve"><g><path d="M48,17.586l3.086-3.086l-4.551-4.55C45.545,8.958,45,7.642,45,6.243c0-0.046,0.012-0.088,0.013-0.133   C44.756,6.042,44.498,6,44.242,6C42.454,6,41,7.455,41,9.243c0,0.866,0.337,1.68,0.95,2.293L48,17.586z"/><path d="M54,14.586l6.051-6.05C60.663,7.923,61,7.108,61,6.243C61,4.455,59.546,3,57.758,3c-0.867,0-1.681,0.337-2.292,0.949   L54,5.414L52.535,3.95C51.923,3.337,51.109,3,50.242,3C48.454,3,47,4.455,47,6.243c0,0.866,0.337,1.68,0.95,2.293L54,14.586z"/><circle cx="46" cy="43" r="1"/><path d="M40.981,48.424C40.324,47.864,39.079,47,38,47s-2.324,0.864-2.981,1.424c0.098,1.145,0.609,2.212,1.403,3.036   C36.881,51.173,37.419,51,38,51c0.33,0,0.643,0.067,0.94,0.166c0.489-0.51,1.056-0.932,1.668-1.272   C40.801,49.424,40.938,48.93,40.981,48.424z"/><circle cx="38" cy="54" r="1"/><path d="M56.54,52.421C56.827,52.881,57,53.419,57,54c0,0.33-0.067,0.643-0.166,0.94c0.51,0.489,0.932,1.056,1.272,1.668   c0.47,0.193,0.964,0.33,1.47,0.374C60.137,56.324,61,55.08,61,54s-0.863-2.324-1.424-2.982   C58.432,51.117,57.364,51.628,56.54,52.421z"/><path d="M38,39.956c0.561-0.906,1.171-1.542,1.293-1.663L39.586,38H40c0.368,0,0.735,0.04,1.099,0.098   C41.041,37.736,41,37.371,41,37v-0.414l0.293-0.293C41.527,36.058,43.653,34,46,34s4.473,2.058,4.707,2.293L51,36.586V37   c0,0.368-0.04,0.735-0.098,1.099c0.2-0.032,0.402-0.055,0.605-0.07l2.751-3.301l-11.968-8.549l-2.892,3.253   c-0.439,0.495-0.919,0.959-1.419,1.401C37.989,31.089,38,31.344,38,31.602V39.956z"/><path d="M48.981,37.424C48.324,36.864,47.079,36,46,36s-2.324,0.864-2.981,1.424c0.098,1.145,0.609,2.212,1.403,3.036   C44.881,40.173,45.419,40,46,40c0.33,0,0.643,0.067,0.94,0.166c0.489-0.51,1.056-0.932,1.668-1.272   C48.801,38.424,48.938,37.93,48.981,37.424z"/><path d="M56.981,48.424C56.324,47.864,55.079,47,54,47s-2.324,0.864-2.981,1.424c0.098,1.145,0.609,2.212,1.403,3.036   C52.881,51.173,53.419,51,54,51c0.33,0,0.643,0.067,0.94,0.166c0.489-0.51,1.056-0.932,1.668-1.272   C56.801,49.424,56.938,48.93,56.981,48.424z"/><path d="M57.812,33.582c0.156-0.217,0.217-0.482,0.173-0.746c-0.044-0.265-0.188-0.496-0.405-0.651L55,30.343V17h-2v11.914   l-4-2.857V20h-2v4.628l-3.418-2.442C43.412,22.065,43.211,22,43.003,22c-0.323,0-0.629,0.157-0.817,0.42   c-0.154,0.214-0.215,0.479-0.171,0.743c0.044,0.265,0.188,0.496,0.405,0.651l13.999,10C56.852,34.123,57.506,34.013,57.812,33.582z   "/><path d="M50.109,45.612c0.326,0.134,0.662,0.232,1.009,0.295c0.262-0.155,0.543-0.298,0.841-0.428C52.624,44.569,53,43.693,53,43   c0-1.08-0.863-2.324-1.424-2.982c-1.145,0.099-2.212,0.61-3.036,1.403C48.827,41.881,49,42.419,49,43   c0,0.33-0.067,0.643-0.166,0.94C49.346,44.43,49.769,44.999,50.109,45.612z"/><circle cx="54" cy="54" r="1"/><path d="M9.715,18.295l2.284-3.513l-3.421-3.041c-0.993-0.883-2.212-1.454-3.509-1.658c0.175,1.359,0.681,2.649,1.486,3.779   L9.715,18.295z"/><path d="M43,43c0-0.33,0.067-0.643,0.166-0.94c-0.51-0.489-0.933-1.056-1.272-1.668c-0.469-0.193-0.964-0.33-1.47-0.373   C39.863,40.676,39,41.92,39,43c0,0.693,0.377,1.569,1.041,2.479c0.296,0.129,0.574,0.27,0.834,0.424   c0.976-0.176,1.876-0.636,2.587-1.32C43.174,44.122,43,43.582,43,43z"/><path d="M10,55c-0.552,0-1,0.449-1,1s0.448,1,1,1h19.975c-0.354-0.579-0.678-1.262-0.848-2H10z"/><path d="M47.586,49H48c0.368,0,0.735,0.04,1.099,0.098c-0.005-0.033-0.013-0.065-0.018-0.098H49c0-1.298-0.52-2.542-1.409-3.467   C47.128,45.825,46.586,46,46,46c-0.332,0-0.646-0.067-0.945-0.167c-0.493,0.514-1.06,0.948-1.68,1.29   C43.134,47.717,43,48.358,43,49v0.081C43.33,49.033,43.663,49,44,49h0.414l0.293,0.293c0.122,0.122,0.732,0.758,1.293,1.663   c0.561-0.906,1.171-1.542,1.293-1.663L47.586,49z"/><path d="M40.54,52.421C40.827,52.881,41,53.419,41,54c0,0.33-0.067,0.643-0.166,0.94c0.51,0.489,0.932,1.056,1.272,1.668   c0.47,0.193,0.964,0.33,1.47,0.374C44.137,56.324,45,55.08,45,54s-0.863-2.324-1.424-2.982   C42.432,51.117,41.364,51.628,40.54,52.421z"/><path d="M51,54c0-0.33,0.067-0.643,0.166-0.94c-0.51-0.489-0.933-1.056-1.272-1.668c-0.469-0.193-0.964-0.33-1.47-0.373   C47.863,51.676,47,52.92,47,54s0.863,2.324,1.424,2.982c1.145-0.099,2.212-0.61,3.036-1.403C51.173,55.119,51,54.581,51,54z"/><path d="M54,57c-0.33,0-0.642-0.067-0.94-0.166c-0.489,0.51-1.056,0.932-1.668,1.272c-0.193,0.469-0.33,0.963-0.373,1.47   C51.676,60.136,52.921,61,54,61s2.324-0.864,2.981-1.424c-0.098-1.145-0.609-2.212-1.403-3.036C55.119,56.827,54.581,57,54,57z"/><path d="M38,57c-0.33,0-0.642-0.067-0.94-0.166c-0.489,0.51-1.056,0.932-1.668,1.272c-0.193,0.469-0.33,0.963-0.373,1.47   C35.676,60.136,36.921,61,38,61s2.324-0.864,2.981-1.424c-0.098-1.145-0.609-2.212-1.403-3.036C39.119,56.827,38.581,57,38,57z"/><path d="M23.726,12.961L23,12.754V10c0-1.416-0.985-2.605-2.307-2.919L18.721,13H18c-1.539,0-2.958,0.77-3.796,2.06l-11.05,17   l0.9,1.757C4.43,34.546,5.172,35,5.992,35c0.468,0,0.932-0.155,1.307-0.436l2.312-1.733C10.324,32.295,11.209,32,12.103,32h2.948   c2.206,0,4-1.794,4-4h2c0,3.309-2.691,6-6,6H14v4.414l-1.158,1.159C11.009,41.405,10,43.842,10,46.433   c0,2.085,0.689,4.153,1.94,5.821L12.5,53h16.627c0.174-0.756,0.509-1.456,0.873-2.044V32c0-1.276-0.208-2.512-0.594-3.699   c-1.094,1.185-2.483,2.112-4.09,2.647l-0.633-1.897c3.18-1.06,5.316-4.024,5.316-7.376V21.28C30,17.438,27.42,14.017,23.726,12.961   z M15.671,42.4C14.594,43.478,14,44.91,14,46.433c0,1.056,0.294,2.092,0.852,2.996l-1.703,1.049C12.397,49.258,12,47.859,12,46.433   c0-2.057,0.802-3.991,2.257-5.446l1.692-1.693l1.414,1.414L15.671,42.4z"/><path d="M35,54c0-0.33,0.067-0.643,0.166-0.94c-0.51-0.489-0.933-1.056-1.272-1.668c-0.469-0.193-0.964-0.33-1.47-0.373   C31.863,51.676,31,52.92,31,54s0.863,2.324,1.424,2.982c1.145-0.099,2.212-0.61,3.036-1.403C35.173,55.119,35,54.581,35,54z"/><path d="M30.797,26.365C31.583,28.143,32,30.032,32,32v17c0.368,0,0.735,0.04,1.099,0.098C33.041,48.736,33,48.371,33,48v-0.414   l0.293-0.293c0.164-0.164,1.263-1.212,2.707-1.832V31.602c0-4.125-1.449-8.023-4.032-11.122C31.989,20.745,32,21.011,32,21.28   v0.395C32,23.358,31.566,24.959,30.797,26.365z"/></g><text x="0" y="79" fill="#000000" font-size="5px" font-weight="bold" font-family="'Helvetica Neue', Helvetica, Arial-Unicode, Arial, Sans-serif">Created by Eucalyp</text><text x="0" y="84" fill="#000000" font-size="5px" font-weight="bold" font-family="'Helvetica Neue', Helvetica, Arial-Unicode, Arial, Sans-serif">from the Noun Project</text></svg>