<svg id="Capa_1" enable-background="new 0 0 512 512" height="512" viewBox="0 0 512 512" width="512" xmlns="http://www.w3.org/2000/svg"><g><path d="m163.95 361c0-16.568-13.431-30-30-30h-64.465c-16.565 0-29.995 13.427-30 29.991 0-.509-3.289-73.067-9.501-210.668-.373-8.276-7.375-14.669-15.661-14.308-8.276.374-14.682 7.386-14.308 15.662l9.47 209.661v104.662c0 8.284 6.716 15 15 15s15-6.716 15-15v-60h94.465v60c0 8.284 6.716 15 15 15s15-6.716 15-15c0-9.902 0-94.458 0-105z"/><path d="m497.677 136.015c-8.286-.361-15.288 6.032-15.661 14.308-6.212 137.601-9.501 210.159-9.501 210.668-.005-16.564-13.434-29.991-30-29.991h-64.465c-16.569 0-30 13.432-30 30v105c0 8.284 6.716 15 15 15s15-6.716 15-15v-60h94.465v60c0 8.284 6.716 15 15 15s15-6.716 15-15v-104.662l9.47-209.661c.373-8.276-6.032-15.288-14.308-15.662z"/><path d="m286 376 75-89h-210l75 89-26.358 92.253c-1.825 6.388 2.971 12.747 9.615 12.747h93.485c6.644 0 11.44-6.359 9.615-12.747z"/><circle cx="256" cy="46" r="15"/><path d="m421 242c0-16.569-13.431-30-30-30h-102.544c7.73-8.077 12.495-19.014 12.495-31.05v-29.95c0-8.284-6.716-15-15-15h-15v-44.95c0-8.284-6.716-15-15-15s-15 6.716-15 15v44.95h-14.9c-8.284 0-15 6.716-15 15v29.95c0 12.036 4.764 22.973 12.495 31.05h-102.546c-16.569 0-30 13.431-30 30v15h330z"/></g></svg>