<svg id="Capa_1" enable-background="new 0 0 512 512" height="512" viewBox="0 0 512 512" width="512" xmlns="http://www.w3.org/2000/svg"><g><path d="m11.328 202.313 238.5-187.078c3.624-2.842 8.72-2.842 12.344 0l238.5 187.078c2.417 1.896 3.828 4.797 3.828 7.868v18.265l-248.5 196.404-248.5-196.404v-18.265c0-3.071 1.412-5.972 3.828-7.868z" fill="#fcddb3"/><path d="m504.5 210.177v18.27l-248.5 196.4-248.5-196.4v-18.27c0-3.07 1.41-5.97 3.83-7.86l8.16-6.4c6.01.38 11.7 2.56 16.53 6.35l219.98 172.55 219.98-172.55c4.83-3.79 10.52-5.97 16.53-6.35l8.16 6.4c2.42 1.89 3.83 4.79 3.83 7.86z" fill="#fbcc85"/><path d="m504.5 210.177v18.27l-36.67 28.98v-47.25c0-3.07-1.41-5.97-3.82-7.86l-226.34-177.54 12.16-9.54c3.62-2.84 8.72-2.84 12.34 0l238.5 187.08c2.42 1.89 3.83 4.79 3.83 7.86z" fill="#fbcc85"/><g><path d="m323.191 157.212c-26.849 0-50.906 12.718-67.187 32.812-16.281-20.094-40.338-32.812-67.187-32.812-49.048 0-88.816 42.434-88.816 94.784 0 45.749 41.803 123.471 134.384 171.057 5.63 2.894 11.449 5.676 17.456 8.33 2.647 1.17 5.679 1.17 8.326 0 6.007-2.654 11.826-5.437 17.456-8.33 92.571-47.586 134.374-125.308 134.374-171.057 0-52.35-39.758-94.784-88.806-94.784z" fill="#fca5cd"/><g fill="#fc7cb6"><path d="m411.99 252.457c-.27 45.8-42.11 123.17-134.37 170.6-5.63 2.89-11.45 5.67-17.45 8.33-2.65 1.17-5.68 1.17-8.33 0-6.01-2.66-11.82-5.44-17.45-8.33-92.28-47.43-134.11-124.8-134.38-170.6l155.99 122.36z"/><path d="m411.999 251.99c0 45.75-41.804 123.471-134.374 171.057-5.633 2.893-11.453 5.676-17.461 8.33-2.648 1.17-5.681 1.169-8.329-.002-6.001-2.654-11.82-5.435-17.452-8.328-1.731-.892-3.442-1.784-5.131-2.707 88.981-47.775 129.232-123.461 129.232-168.35 0-42.402-26.075-78.288-62.056-90.397 8.447-2.854 17.429-4.386 26.757-4.386 49.056 0 88.814 42.434 88.814 94.783z"/></g></g><path d="m504.5 225.87v253.037c0 11.046-8.954 20-20 20h-457c-11.046 0-20-8.954-20-20v-253.037c0-8.341 9.609-13.016 16.172-7.868l219.985 172.553c7.247 5.685 17.44 5.685 24.687 0l219.985-172.553c6.562-5.147 16.171-.472 16.171 7.868z" fill="#fef0dc"/><path d="m504.5 225.867v253.04c0 11.05-8.95 20-20 20h-36.67c11.05 0 20-8.95 20-20v-244.83l20.5-16.08c6.56-5.14 16.17-.47 16.17 7.87z" fill="#f9e1c2"/><g><circle cx="83.997" cy="430.977" fill="#64b9fc" r="35.851"/><path d="m119.847 430.98c0 19.8-16.05 35.85-35.85 35.85-4.21 0-8.25-.72-12-2.05 13.9-4.94 23.85-18.21 23.85-33.8s-9.95-28.86-23.85-33.8c3.75-1.33 7.79-2.05 12-2.05 19.8 0 35.85 16.05 35.85 35.85z" fill="#31a7fb"/><g><path d="m400.743 277.171-137.028 107.483c-4.543 3.563-10.889 3.563-15.43 0l-137.067-107.514c-2.36-8.791-3.717-17.745-3.717-25.144 0-17.81 4.97-34.943 14.372-49.547 2.242-3.483 1.237-8.124-2.246-10.366s-8.123-1.237-10.365 2.246c-10.965 17.031-16.761 36.972-16.761 57.667 0 3.538.238 7.215.687 11.002l-64.887-50.898c-3.658-2.87-8.151-4.12-12.578-3.656.077-.078.146-.161.234-.23l238.5-187.078c.908-.712 2.178-.712 3.086 0l168.639 132.279c3.259 2.556 7.973 1.987 10.53-1.272s1.986-7.974-1.272-10.53l-168.639-132.279c-6.359-4.989-15.242-4.988-21.602 0l-238.499 187.077c-4.258 3.339-6.7 8.358-6.7 13.77v268.726c0 15.164 12.336 27.5 27.5 27.5h299.57c4.143 0 7.5-3.358 7.5-7.5s-3.357-7.5-7.5-7.5h-299.57c-.978 0-1.925-.124-2.839-.338l32.877-25.788c7.327 5.664 16.503 9.046 26.458 9.046 23.904 0 43.352-19.447 43.352-43.351 0-6.24-1.336-12.17-3.719-17.536l68.526-53.751 46.873 36.767c9.994 7.838 23.951 7.837 33.945 0l46.873-36.766 167.493 131.38c-.914.213-1.861.338-2.839.338h-124.439c-4.143 0-7.5 3.358-7.5 7.5s3.357 7.5 7.5 7.5h124.439c15.164 0 27.5-12.336 27.5-27.5v-268.727c0-5.412-2.442-10.431-6.699-13.77l-43.907-34.44c-3.258-2.555-7.974-1.987-10.53 1.272s-1.986 7.974 1.272 10.53l43.908 34.441c.087.068.157.152.233.23-4.426-.464-8.919.786-12.578 3.656l-64.887 50.897c.449-3.786.685-7.462.685-11.002 0-56.399-43.202-102.284-96.306-102.284-25.228 0-49.272 10.472-67.188 29.006-17.914-18.534-41.959-29.006-67.187-29.006-19.895 0-38.994 6.392-55.236 18.485-3.322 2.474-4.01 7.172-1.536 10.495 2.475 3.323 7.171 4.01 10.495 1.537 13.633-10.151 29.636-15.517 46.277-15.517 23.53 0 45.896 10.947 61.359 30.033 1.424 1.758 3.565 2.779 5.827 2.779s4.403-1.021 5.827-2.778c15.465-19.086 37.83-30.033 61.36-30.033 44.832 0 81.306 39.155 81.306 87.284.002 7.549-1.298 16.189-3.752 25.175zm-316.747 182.157c-15.633 0-28.351-12.718-28.351-28.351 0-15.632 12.718-28.351 28.351-28.351s28.352 12.718 28.352 28.351-12.719 28.351-28.352 28.351zm31.236-58.366c-7.893-8.211-18.974-13.336-31.236-13.336-23.903 0-43.351 19.447-43.351 43.351 0 8.527 2.485 16.48 6.754 23.193l-32.366 25.388c-.011-.217-.033-.431-.033-.65v-253.038c0-1.36.881-1.992 1.406-2.248.526-.255 1.567-.559 2.637.281l160.959 126.254zm377.725-177.059c1.073-.84 2.111-.536 2.637-.281.525.256 1.406.888 1.406 2.248 0 0-.022 253.471-.033 253.687l-164.969-129.4z"/><path d="m215.999 297.69v-11c0-4.142-3.357-7.5-7.5-7.5s-7.5 3.358-7.5 7.5v11c0 4.142 3.357 7.5 7.5 7.5s7.5-3.358 7.5-7.5z"/><path d="m310.999 297.69v-11c0-4.142-3.357-7.5-7.5-7.5s-7.5 3.358-7.5 7.5v11c0 4.142 3.357 7.5 7.5 7.5s7.5-3.358 7.5-7.5z"/><path d="m255.999 343.141c14.155 0 26.351-10.083 28.998-23.975.775-4.069-1.895-7.996-5.963-8.771-4.062-.778-7.996 1.893-8.771 5.963-1.302 6.828-7.3 11.784-14.264 11.784s-12.962-4.956-14.264-11.784c-.774-4.069-4.703-6.744-8.771-5.963-4.068.775-6.738 4.703-5.963 8.771 2.647 13.892 14.843 23.975 28.998 23.975z"/></g></g></g></svg>