<?xml version="1.0" encoding="UTF-8"?>
<svg xmlns="http://www.w3.org/2000/svg" viewBox="0 0 64 64" width="512" height="512"><g id="propose-sweetheart-heart-valentine-romance"><path d="M21.89,14.55,20,10.76V7a5,5,0,0,0-5-5H11A5,5,0,0,0,6,7V47a1,1,0,0,0,1,1H9V61a1,1,0,0,0,1,1h8a1,1,0,0,0,1-1V59a3.009,3.009,0,0,0-3-3H15V48h2a1,1,0,0,0,1-1V32.87a4,4,0,0,0,0-7.74V25a3.01,3.01,0,0,0-2-2.82V20h1a3.009,3.009,0,0,0,3-3V16h1a1,1,0,0,0,.89-1.45ZM8,7a3.009,3.009,0,0,1,3-3h4a3.014,3.014,0,0,1,2.83,2H15a3.009,3.009,0,0,0-3,3v1.17a3,3,0,0,0-.43,5.46L8.34,22.08a1.906,1.906,0,0,0-.34.1Zm8,51a1,1,0,0,1,1,1v1H11V58Zm-5-2V48h2v8Zm5-10H8V38H9v2a3,3,0,0,0,6,0V38h1Zm-5-6V28a1,1,0,0,1,2,0V40a1,1,0,0,1-2,0Zm6-13a2,2,0,0,1,0,4,1,1,0,0,0-1,1v4H15V28a3,3,0,0,0-6,0v8H8V25a1,1,0,0,1,1-1h6a1,1,0,0,1,1,1v1A1,1,0,0,0,17,27Zm2-13a1,1,0,0,0-1,1v2a1,1,0,0,1-1,1H15a1,1,0,0,0-1,1v3H10.62l3.27-6.55A1,1,0,0,0,13,14a1,1,0,0,1,0-2,1,1,0,0,0,1-1V9a1,1,0,0,1,1-1h3v3a1,1,0,0,0,.11.45L19.38,14Z"/><path d="M53,2H49a5,5,0,0,0-5,5v3.76l-1.89,3.79A1,1,0,0,0,43,16h1v1a3.009,3.009,0,0,0,3,3h1v2H47a3.01,3.01,0,0,0-2.82,2H33V22h2V20H33V17.69c1.9-.96,5-4.05,5-7.69a4,4,0,0,0-4-4,3.909,3.909,0,0,0-2,.55A3.909,3.909,0,0,0,30,6a4,4,0,0,0-4,4c0,3.64,3.1,6.73,5,7.69V20H29v2h2V33h2V30H44v9a1,1,0,0,0,1,1h1V56.18A3.01,3.01,0,0,0,44,59v2a1,1,0,0,0,1,1h8a1,1,0,0,0,1-1V40h1a1,1,0,0,0,1-1V25a3.01,3.01,0,0,0-2-2.82V19h1a3.009,3.009,0,0,0,3-3V7A5,5,0,0,0,53,2ZM32,15.97c-.88-.37-4-2.84-4-5.97a1.989,1.989,0,0,1,3.33-1.48,1.008,1.008,0,0,0,1.34,0A1.989,1.989,0,0,1,36,10C36,13.13,32.88,15.6,32,15.97ZM44,28H33V26H44Zm3-10a1,1,0,0,1-1-1V15a1,1,0,0,0-1-1h-.38l1.27-2.55A1,1,0,0,0,46,11V8h3a1,1,0,0,1,1,1v2a1,1,0,0,0,1,1,1,1,0,0,1,0,2,.984.984,0,0,0-.88.53.963.963,0,0,0,.05,1.02L52,18.3V22H50V19a1,1,0,0,0-1-1Zm5,42H46V59a1,1,0,0,1,1-1h5Zm0-4H48V42.22a2.954,2.954,0,0,0,4,0ZM49,40V28a1,1,0,0,1,2,0V40a1,1,0,0,1-2,0Zm5-2H53V28a3,3,0,0,0-6,0V38H46V25a1,1,0,0,1,1-1h6a1,1,0,0,1,1,1Zm2-22a1,1,0,0,1-1,1H53.54l-.97-1.45A2.974,2.974,0,0,0,54,13a3.014,3.014,0,0,0-2-2.83V9a3.009,3.009,0,0,0-3-3H46.17A3.014,3.014,0,0,1,49,4h4a3.009,3.009,0,0,1,3,3Z"/></g></svg>
