<svg id="Capa_1" enable-background="new 0 0 512 512" height="512" viewBox="0 0 512 512" width="512" xmlns="http://www.w3.org/2000/svg"><g><path d="m256 421c-20.367 0-34.515-6.346-45-13.559v28.559c0 24.814-20.186 46-45 46h-30c-8.291 0-15 6.709-15 15s6.709 15 15 15h240c8.291 0 15-6.709 15-15s-6.709-15-15-15h-30c-24.814 0-45-21.186-45-46v-28.555c-10.479 7.207-24.628 13.555-45 13.555z"/><path d="m467 151h-46v-32.763c17.422-6.213 30-23.707 30-43.237v-60c0-8.291-6.709-15-15-15h-60c-8.291 0-15 6.709-15 15v60c0 19.53 12.578 37.024 30 43.237v32.763h-120v-37.971l8.613-6.341c29.385-21.475 50.625-37.987 50.625-63.505 0-24.214-19.775-43.169-45-43.169-12.92 0-22.793 4.863-30 11.265-7.178-6.401-17.08-11.265-30-11.265-25.225 0-45 18.955-45 43.169 0 25.503 21.211 41.986 50.566 63.432l10.196 7.526v36.859h-120v-32.763c17.422-6.213 30-23.707 30-43.237v-60c0-8.291-6.709-15-15-15h-60c-8.291 0-15 6.709-15 15v60c0 19.53 12.578 37.024 30 43.237v32.763h-45c-24.814 0-46 20.186-46 45v88.021c21.866 4.98 27.4-.868 33.809-8.026 7.558-8.437 18.9-19.995 42.191-19.995 23.262 0 33.633 11.558 41.162 19.995 5.977 6.665 8.965 10.005 18.838 10.005s12.861-3.34 18.838-10.005c7.529-8.437 17.9-19.995 41.162-19.995s33.633 11.558 41.162 19.995c5.977 6.665 8.965 10.005 18.838 10.005s12.861-3.34 18.838-10.005c7.529-8.437 17.9-19.995 41.162-19.995s33.633 11.558 41.162 19.995c5.977 6.665 8.965 10.005 18.838 10.005s12.861-3.34 18.838-10.005c7.529-8.437 17.9-19.995 41.162-19.995 23.291 0 34.633 11.558 42.191 19.995 6.429 7.165 11.999 12.99 33.809 8.026v-88.021c0-24.814-20.186-45-45-45z"/><path d="m454.838 296.005c-5.977-6.665-8.965-10.005-18.838-10.005s-12.861 3.34-18.838 10.005c-7.529 8.437-17.9 19.995-41.162 19.995s-33.633-11.558-41.162-19.995c-5.977-6.665-8.965-10.005-18.838-10.005s-12.861 3.34-18.838 10.005c-7.529 8.437-17.9 19.995-41.162 19.995s-33.633-11.558-41.162-19.995c-5.977-6.665-8.965-10.005-18.838-10.005s-12.861 3.34-18.838 10.005c-7.529 8.437-17.9 19.995-41.162 19.995s-33.633-11.558-41.162-19.995c-5.977-6.665-8.965-10.005-18.838-10.005s-12.861 3.34-18.838 10.005c-11.9 13.33-26.159 23.677-57.162 18.42v61.575c0 8.291 6.709 15 15 15 23.262 0 34.633-11.558 42.162-19.995 5.977-6.665 8.965-10.005 18.838-10.005s12.861 3.34 18.838 10.005c7.529 8.437 17.9 19.995 41.162 19.995s33.633-11.558 41.162-19.995c5.977-6.665 8.965-10.005 18.838-10.005s12.861 3.34 18.838 10.005c7.529 8.437 17.9 19.995 41.162 19.995s33.633-11.558 41.162-19.995c5.977-6.665 8.965-10.005 18.838-10.005s12.861 3.34 18.838 10.005c7.529 8.437 17.9 19.995 41.162 19.995s33.633-11.558 41.162-19.995c5.977-6.665 8.965-10.005 18.838-10.005s12.861 3.34 18.838 10.005c7.529 8.437 18.9 19.995 42.162 19.995 8.291 0 15-6.709 15-15v-61.545c-27.266 4.628-41.88-1.385-57.162-18.45z"/></g></svg>