<?xml version="1.0"?>
<svg xmlns="http://www.w3.org/2000/svg" viewBox="0 0 64 64" width="512" height="512"><g id="Glyph"><path d="M11,32.75a19.944,19.944,0,0,1-2,.2V60h2Z"/><path d="M9,20.938V22.95A10.018,10.018,0,0,0,17.95,14H15.937A8.017,8.017,0,0,1,9,20.938Z"/><path d="M32.692,4.722a1,1,0,0,1-1.384,0A3.2,3.2,0,0,0,29.1,3.91a3.385,3.385,0,0,0-2.332.871A2.834,2.834,0,0,0,26,6.835a3.456,3.456,0,0,0,.961,2.47L32,13.676l5.076-4.4A3.448,3.448,0,0,0,38,6.835a2.839,2.839,0,0,0-.766-2.055A3.49,3.49,0,0,0,32.692,4.722Z"/><path d="M55,24.949A12.006,12.006,0,0,1,44.051,14h-2A14,14,0,0,0,55,26.949Z"/><path d="M25.973,14h-2A16.024,16.024,0,0,1,9,28.969v2A18.028,18.028,0,0,0,25.973,14Z"/><path d="M38.424,10.749,36.982,12H49V8H39.877A5.288,5.288,0,0,1,38.424,10.749Z"/><path d="M51,32.342c-.153-.04-.307-.075-.458-.118L45.933,42.365c-.788,2.4-.614,4.416,0,7.239a.951.951,0,0,1,.063.2A18.835,18.835,0,0,1,44.727,60H51Z"/><path d="M18,49.8a1.063,1.063,0,0,1,.064-.205c.617-2.821.79-4.837,0-7.234L13.458,32.224c-.151.043-.3.078-.458.118V60h6.273A18.835,18.835,0,0,1,18,49.8Z"/><path d="M36.051,14H34.678l-2.023,1.755A1,1,0,0,1,32,16h4.25A19.944,19.944,0,0,1,36.051,14Z"/><path d="M29.322,14H27.949a19.944,19.944,0,0,1-.2,2H32a1,1,0,0,1-.655-.245Z"/><path d="M46.05,14A10.018,10.018,0,0,0,55,22.95V20.938A8.019,8.019,0,0,1,48.062,14Z"/><path d="M9,24.949v2A14,14,0,0,0,21.949,14h-2A12.006,12.006,0,0,1,9,24.949Z"/><path d="M55,60V32.949a19.944,19.944,0,0,1-2-.2V60Z"/><path d="M58.586,14h-8.5a6.008,6.008,0,0,0,2.6,4h5.9l-1.293-1.293a1,1,0,0,1,0-1.414Z"/><path d="M55,28.969A16.024,16.024,0,0,1,40.031,14h-2A18.028,18.028,0,0,0,55,30.973Z"/><path d="M27.017,12l-1.4-1.218A5.338,5.338,0,0,1,24.124,8H15v4H27.017Z"/><path d="M44.071,50.37a1.09,1.09,0,0,1-.048-.153c-.712-3.21-.937-5.635.029-8.533.01-.033,4.587-10.106,4.587-10.106A20.055,20.055,0,0,1,36.658,18H27.342A20.055,20.055,0,0,1,15.361,31.578s4.576,10.073,4.587,10.106c.966,2.9.741,5.323.029,8.533a1.192,1.192,0,0,1-.049.157c-.476,2.7.111,7.234,1.6,9.626H42.47C43.962,57.607,44.549,53.072,44.071,50.37Z"/><path d="M5.414,18h5.9a6.008,6.008,0,0,0,2.6-4h-8.5l1.293,1.293a1,1,0,0,1,0,1.414Z"/></g></svg>
